<?xml version="1.0" encoding="UTF-8" standalone="no"?>
<svg
   xmlns:dc="http://purl.org/dc/elements/1.1/"
   xmlns:cc="http://creativecommons.org/ns#"
   xmlns:rdf="http://www.w3.org/1999/02/22-rdf-syntax-ns#"
   xmlns:svg="http://www.w3.org/2000/svg"
   xmlns="http://www.w3.org/2000/svg"
   xmlns:xlink="http://www.w3.org/1999/xlink"
   xmlns:sodipodi="http://sodipodi.sourceforge.net/DTD/sodipodi-0.dtd"
   xmlns:inkscape="http://www.inkscape.org/namespaces/inkscape"
   width="19.279303mm"
   height="19.30117mm"
   viewBox="0 0 19.279303 19.30117"
   version="1.1"
   id="svg98"
   inkscape:version="1.0rc1 (09960d6, 2020-04-09)"
   sodipodi:docname="optano-logo-purple.svg">
  <defs
     id="defs92" />
  <symbol id="optano-logo-purple" viewBox="0 0 19.279303 19.30117">
  <sodipodi:namedview
     id="base"
     pagecolor="#ffffff"
     bordercolor="#666666"
     borderopacity="1.0"
     inkscape:pageopacity="0.0"
     inkscape:pageshadow="2"
     inkscape:zoom="0.35"
     inkscape:cx="-430.70952"
     inkscape:cy="85.046081"
     inkscape:document-units="mm"
     inkscape:current-layer="layer1"
     inkscape:document-rotation="0"
     showgrid="false"
     inkscape:window-width="1252"
     inkscape:window-height="847"
     inkscape:window-x="0"
     inkscape:window-y="25"
     inkscape:window-maximized="0" />
  <metadata
     id="metadata95">
    <rdf:RDF>
      <cc:Work
         rdf:about="">
        <dc:format>image/svg+xml</dc:format>
        <dc:type
           rdf:resource="http://purl.org/dc/dcmitype/StillImage" />
        <dc:title></dc:title>
      </cc:Work>
    </rdf:RDF>
  </metadata>
  <g
     transform="translate(-98.461538,-131.71251)"
     inkscape:label="Layer 1"
     inkscape:groupmode="layer"
     id="layer1">
    <path
       inkscape:connector-curvature="0"
       id="path52"
       style="fill:currentColor;fill-opacity:1;fill-rule:nonzero;stroke:none;stroke-width:0.0352777"
       d="m 108.11213,132.59763 c 2.34138,0 4.54272,0.91193 6.1983,2.56751 1.50213,1.50213 2.39183,3.45334 2.54388,5.55131 h 0.88653 c -0.33302,-5.02849 -4.51626,-9.00394 -9.62871,-9.00394 -2.43205,0 -4.65385,0.89993 -6.35106,2.38477 l 0.62688,0.62689 c 1.59068,-1.37583 3.59975,-2.12654 5.72418,-2.12654" />
    <path
       inkscape:connector-curvature="0"
       id="path54"
       style="fill:currentColor;fill-opacity:1;fill-rule:nonzero;stroke:none;stroke-width:0.0352777"
       d="m 116.85431,142.00974 c -0.15205,2.09761 -1.04175,4.04918 -2.54388,5.55131 -1.65558,1.65558 -3.85692,2.56751 -6.1983,2.56751 -2.34139,0 -4.54237,-0.91193 -6.19796,-2.56751 -1.65558,-1.65559 -2.567513,-3.85692 -2.567513,-6.19831 0,-2.12443 0.750713,-4.13314 2.126543,-5.72417 l -0.62688,-0.62689 c -1.484846,1.69722 -2.384782,3.91901 -2.384782,6.35106 0,5.33012 4.320822,9.65094 9.650592,9.65094 5.11245,0 9.29569,-3.9758 9.62871,-9.00394 h -0.88653" />
    <path
       inkscape:connector-curvature="0"
       id="path56"
       style="fill:currentColor;fill-opacity:1;fill-rule:nonzero;stroke:none;stroke-width:0.0352777"
       d="m 114.14639,136.24358 -0.63041,0.63042 c 1.01388,1.21849 1.62454,2.78377 1.62454,4.4891 0,3.65724 -2.80811,6.67067 -6.3814,6.99805 v 0.889 c 4.06788,-0.32914 7.26687,-3.73451 7.26687,-7.88705 0,-1.95263 -0.70767,-3.73945 -1.8796,-5.11952" />
    <path
       inkscape:connector-curvature="0"
       id="path58"
       style="fill:currentColor;fill-opacity:1;fill-rule:nonzero;stroke:none;stroke-width:0.0352777"
       d="m 107.46548,148.3615 c -3.57328,-0.32773 -6.38139,-3.34081 -6.38139,-6.9984 0,-3.87527 3.15277,-7.0284 7.02839,-7.0284 1.70533,0 3.27025,0.61066 4.48874,1.62455 l 0.63042,-0.63042 c -1.38007,-1.17193 -3.16689,-1.87925 -5.11916,-1.87925 -4.37056,0 -7.91386,3.54295 -7.91386,7.91352 0,4.15289 3.19898,7.55791 7.26686,7.88705 v -0.88865" />
    <path
       inkscape:connector-curvature="0"
       id="path60"
       style="fill:currentColor;fill-opacity:1;fill-rule:nonzero;stroke:none;stroke-width:0.0352777"
       d="m 108.11213,146.65441 c -2.6984,0 -4.93007,-2.03094 -5.2504,-4.64432 h -0.89252 c 0.32349,3.10691 2.95028,5.52944 6.14292,5.52944 1.47249,0 2.82433,-0.51541 3.88584,-1.37584 l -0.63253,-0.63217 c -0.89817,0.70238 -2.02706,1.12289 -3.25331,1.12289" />
    <path
       inkscape:connector-curvature="0"
       id="path62"
       style="fill:currentColor;fill-opacity:1;fill-rule:nonzero;stroke:none;stroke-width:0.0352777"
       d="m 108.11213,135.18666 c -3.19264,0 -5.81943,2.42253 -6.14292,5.52944 h 0.89252 c 0.32033,-2.61338 2.552,-4.64432 5.2504,-4.64432 2.91747,0 5.29131,2.37384 5.29131,5.29132 0,1.22625 -0.42051,2.35514 -1.12289,3.25331 l 0.63218,0.63253 c 0.86007,-1.06151 1.37583,-2.41335 1.37583,-3.88584 0,-3.41101 -2.76543,-6.17644 -6.17643,-6.17644" />
    <use
       id="use80"
       xlink:href="#path52"
       y="0"
       x="0"
       width="100%"
       height="100%" />
    <use
       id="use82"
       xlink:href="#path54"
       y="0"
       x="0"
       width="100%"
       height="100%" />
    <use
       id="use84"
       xlink:href="#path56"
       y="0"
       x="0"
       width="100%"
       height="100%" />
    <use
       id="use86"
       xlink:href="#path58"
       y="0"
       x="0"
       width="100%"
       height="100%" />
    <use
       id="use88"
       xlink:href="#path60"
       y="0"
       x="0"
       width="100%"
       height="100%" />
    <use
       id="use90"
       xlink:href="#path62"
       y="0"
       x="0"
       width="100%"
       height="100%" />
  </g>
  </symbol>
</svg>
